<svg width="700" height="220" viewBox="0 0 700 220" fill="none" xmlns="http://www.w3.org/2000/svg">
<g clip-path="url(#clip0_16_52)">
<path d="M73.7 148C67.3 148 61.4333 147.233 56.1 145.7C50.8333 144.1 46.4667 141.5 43 137.9L51 130.5C53.6 132.9 56.7667 134.8 60.5 136.2C64.3 137.6 68.5333 138.3 73.2 138.3C74.8 138.3 76.4667 138.233 78.2 138.1C79.9333 137.9 81.5667 137.6 83.1 137.2C84.7 136.733 85.9667 136.133 86.9 135.4C87.8333 134.6 88.3 133.6 88.3 132.4C88.3 130.467 86.6667 129.067 83.4 128.2C81.5333 127.667 79.4667 127.2 77.2 126.8C75 126.4 72.7333 126.067 70.4 125.8C66.1333 125.067 62.2667 124.3 58.8 123.5C55.4 122.7 52.5333 121.533 50.2 120C48.4 118.8 46.9667 117.3 45.9 115.5C44.9 113.633 44.4 111.433 44.4 108.9C44.4 106.433 45.1 104.233 46.5 102.3C47.9667 100.367 49.9333 98.7333 52.4 97.4C54.9333 96 57.8667 94.9667 61.2 94.3C64.5333 93.5667 68.1 93.2 71.9 93.2C75.1667 93.2 78.5333 93.5 82 94.1C85.5333 94.6333 88.9 95.5 92.1 96.7C95.3667 97.9 98.1333 99.5 100.4 101.5L94.1 109.6C92.2333 108.333 90.0333 107.2 87.5 106.2C84.9667 105.133 82.3 104.3 79.5 103.7C76.7 103.033 73.9333 102.7 71.2 102.7C69.6667 102.7 68.0333 102.8 66.3 103C64.6333 103.133 63.0333 103.4 61.5 103.8C60.0333 104.2 58.8333 104.767 57.9 105.5C56.9667 106.233 56.5 107.167 56.5 108.3C56.5 108.967 56.7333 109.6 57.2 110.2C57.6667 110.733 58.2667 111.233 59 111.7C60.5333 112.633 62.6 113.367 65.2 113.9C67.8667 114.433 70.7667 114.967 73.9 115.5C78.2333 116.1 82.2 116.867 85.8 117.8C89.4667 118.733 92.5 119.933 94.9 121.4C96.7667 122.533 98.2 123.867 99.2 125.4C100.2 126.867 100.7 128.633 100.7 130.7C100.7 134.433 99.5 137.567 97.1 140.1C94.7667 142.633 91.5667 144.6 87.5 146C83.4333 147.333 78.8333 148 73.7 148ZM130.848 148C123.914 148 117.748 146.833 112.348 144.5C107.014 142.167 102.848 138.933 99.8477 134.8C96.8477 130.6 95.3477 125.867 95.3477 120.6C95.3477 115.267 96.8477 110.533 99.8477 106.4C102.848 102.267 107.014 99.0333 112.348 96.7C117.748 94.3667 123.914 93.2 130.848 93.2C137.781 93.2 143.881 94.3667 149.148 96.7C154.481 99.0333 158.648 102.267 161.648 106.4C164.648 110.533 166.148 115.267 166.148 120.6C166.148 125.867 164.648 130.6 161.648 134.8C158.648 138.933 154.481 142.167 149.148 144.5C143.881 146.833 137.781 148 130.848 148ZM130.848 137.1C135.114 137.1 138.981 136.4 142.448 135C145.914 133.533 148.681 131.567 150.748 129.1C152.814 126.633 153.781 123.8 153.648 120.6C153.781 117.333 152.814 114.467 150.748 112C148.681 109.533 145.914 107.6 142.448 106.2C138.981 104.8 135.114 104.1 130.848 104.1C126.581 104.1 122.681 104.8 119.148 106.2C115.681 107.6 112.914 109.533 110.848 112C108.848 114.467 107.848 117.333 107.848 120.6C107.848 123.8 108.848 126.633 110.848 129.1C112.914 131.567 115.681 133.533 119.148 135C122.681 136.4 126.581 137.1 130.848 137.1ZM192.425 148C187.758 148 183.658 146.933 180.125 144.8C176.592 142.667 173.825 139.567 171.825 135.5C169.892 131.367 168.925 126.467 168.925 120.8V94.3H181.225V117.2C181.225 121.467 181.758 125 182.825 127.8C183.958 130.6 185.725 132.7 188.125 134.1C190.525 135.5 193.592 136.2 197.325 136.2C199.858 136.2 202.258 135.833 204.525 135.1C206.858 134.3 208.892 133.133 210.625 131.6C212.358 130.067 213.725 128.233 214.725 126.1C215.725 123.967 216.225 121.567 216.225 118.9V94.3H228.525V147H216.625L216.325 136L218.525 134.8C217.658 136.867 216.058 138.933 213.725 141C211.458 143 208.525 144.667 204.925 146C201.325 147.333 197.158 148 192.425 148ZM247.139 147V77.9H259.439V147H247.139ZM230.739 105.7V94.3H278.939V105.7H230.739ZM379.337 148C375.87 148 372.57 147.567 369.437 146.7C366.37 145.767 363.637 144.633 361.237 143.3C358.903 141.9 356.97 140.4 355.437 138.8C353.903 137.2 352.937 135.767 352.537 134.5L357.437 134.2L357.137 146.8H345.237V73H357.537V106.5H353.437C353.837 105.1 354.77 103.667 356.237 102.2C357.77 100.667 359.703 99.2333 362.037 97.9C364.437 96.5 367.137 95.3667 370.137 94.5C373.203 93.6333 376.503 93.2 380.037 93.2C385.837 93.2 391.07 94.3667 395.737 96.7C400.47 99.0333 404.237 102.267 407.037 106.4C409.837 110.467 411.237 115.167 411.237 120.5C411.237 125.833 409.87 130.567 407.137 134.7C404.403 138.833 400.637 142.1 395.837 144.5C391.037 146.833 385.537 148 379.337 148ZM377.737 137C382.003 137 385.737 136.3 388.937 134.9C392.137 133.433 394.637 131.467 396.437 129C398.303 126.467 399.237 123.633 399.237 120.5C399.237 117.3 398.303 114.5 396.437 112.1C394.637 109.633 392.137 107.7 388.937 106.3C385.737 104.9 382.003 104.2 377.737 104.2C373.537 104.2 369.77 104.9 366.437 106.3C363.17 107.7 360.603 109.633 358.737 112.1C356.937 114.5 356.037 117.3 356.037 120.5C356.037 123.633 356.937 126.467 358.737 129C360.603 131.467 363.17 133.433 366.437 134.9C369.77 136.3 373.537 137 377.737 137ZM437.123 148C430.789 148 425.289 146.833 420.623 144.5C415.956 142.167 412.356 138.933 409.823 134.8C407.289 130.667 406.023 125.933 406.023 120.6C406.023 115.267 407.356 110.533 410.023 106.4C412.689 102.267 416.389 99.0333 421.123 96.7C425.923 94.3667 431.423 93.2 437.623 93.2C441.423 93.2 444.956 93.6333 448.223 94.5C451.489 95.3667 454.323 96.5333 456.723 98C459.189 99.4 461.123 100.9 462.523 102.5C463.923 104.1 464.656 105.667 464.723 107.2L461.323 107.5V94.3H473.623V147H461.223V132.4L463.723 133.4C463.656 134.933 462.889 136.567 461.423 138.3C459.956 139.967 457.989 141.533 455.523 143C453.123 144.467 450.323 145.667 447.123 146.6C443.989 147.533 440.656 148 437.123 148ZM440.123 137.1C444.389 137.1 448.156 136.4 451.423 135C454.689 133.533 457.223 131.567 459.023 129.1C460.823 126.567 461.723 123.733 461.723 120.6C461.723 117.467 460.823 114.667 459.023 112.2C457.223 109.733 454.689 107.8 451.423 106.4C448.156 104.933 444.389 104.2 440.123 104.2C435.856 104.2 432.089 104.933 428.823 106.4C425.556 107.8 423.023 109.733 421.223 112.2C419.423 114.667 418.523 117.467 418.523 120.6C418.523 123.733 419.423 126.567 421.223 129.1C423.023 131.567 425.556 133.533 428.823 135C432.089 136.4 435.856 137.1 440.123 137.1ZM506.239 148C499.839 148 493.972 147.233 488.639 145.7C483.372 144.1 479.006 141.5 475.539 137.9L483.539 130.5C486.139 132.9 489.306 134.8 493.039 136.2C496.839 137.6 501.072 138.3 505.739 138.3C507.339 138.3 509.006 138.233 510.739 138.1C512.472 137.9 514.106 137.6 515.639 137.2C517.239 136.733 518.506 136.133 519.439 135.4C520.372 134.6 520.839 133.6 520.839 132.4C520.839 130.467 519.206 129.067 515.939 128.2C514.072 127.667 512.006 127.2 509.739 126.8C507.539 126.4 505.272 126.067 502.939 125.8C498.672 125.067 494.806 124.3 491.339 123.5C487.939 122.7 485.072 121.533 482.739 120C480.939 118.8 479.506 117.3 478.439 115.5C477.439 113.633 476.939 111.433 476.939 108.9C476.939 106.433 477.639 104.233 479.039 102.3C480.506 100.367 482.472 98.7333 484.939 97.4C487.472 96 490.406 94.9667 493.739 94.3C497.072 93.5667 500.639 93.2 504.439 93.2C507.706 93.2 511.072 93.5 514.539 94.1C518.072 94.6333 521.439 95.5 524.639 96.7C527.906 97.9 530.672 99.5 532.939 101.5L526.639 109.6C524.772 108.333 522.572 107.2 520.039 106.2C517.506 105.133 514.839 104.3 512.039 103.7C509.239 103.033 506.472 102.7 503.739 102.7C502.206 102.7 500.572 102.8 498.839 103C497.172 103.133 495.572 103.4 494.039 103.8C492.572 104.2 491.372 104.767 490.439 105.5C489.506 106.233 489.039 107.167 489.039 108.3C489.039 108.967 489.272 109.6 489.739 110.2C490.206 110.733 490.806 111.233 491.539 111.7C493.072 112.633 495.139 113.367 497.739 113.9C500.406 114.433 503.306 114.967 506.439 115.5C510.772 116.1 514.739 116.867 518.339 117.8C522.006 118.733 525.039 119.933 527.439 121.4C529.306 122.533 530.739 123.867 531.739 125.4C532.739 126.867 533.239 128.633 533.239 130.7C533.239 134.433 532.039 137.567 529.639 140.1C527.306 142.633 524.106 144.6 520.039 146C515.972 147.333 511.372 148 506.239 148ZM562.787 148C555.72 148 549.453 146.833 543.987 144.5C538.52 142.167 534.253 138.967 531.187 134.9C528.187 130.833 526.687 126.233 526.687 121.1C526.687 116.7 527.587 112.8 529.387 109.4C531.253 105.933 533.787 103 536.987 100.6C540.253 98.2 543.987 96.3667 548.187 95.1C552.453 93.7667 556.92 93.1 561.587 93.1C566.053 93.1 570.253 93.7333 574.187 95C578.12 96.2667 581.553 98.0667 584.487 100.4C587.487 102.667 589.787 105.4 591.387 108.6C593.053 111.733 593.853 115.233 593.787 119.1L593.687 124.3H536.987L534.687 115.5H583.387L581.787 116.7V114.5C581.453 112.367 580.287 110.5 578.287 108.9C576.353 107.3 573.92 106.067 570.987 105.2C568.053 104.267 564.92 103.8 561.587 103.8C557.387 103.8 553.52 104.333 549.987 105.4C546.52 106.467 543.753 108.2 541.687 110.6C539.62 113 538.587 116.2 538.587 120.2C538.587 123.533 539.687 126.467 541.887 129C544.153 131.533 547.253 133.533 551.187 135C555.187 136.4 559.82 137.1 565.087 137.1C570.353 137.1 574.687 136.467 578.087 135.2C581.487 133.867 584.153 132.633 586.087 131.5L591.487 140.2C589.287 141.6 586.653 142.9 583.587 144.1C580.587 145.3 577.287 146.267 573.687 147C570.153 147.667 566.52 148 562.787 148ZM605.853 148.1C602.12 148.1 599.353 147.367 597.553 145.9C595.753 144.433 594.853 142.5 594.853 140.1C594.853 138.1 595.753 136.267 597.553 134.6C599.353 132.933 602.12 132.1 605.853 132.1C609.586 132.1 612.353 132.833 614.153 134.3C615.953 135.7 616.853 137.633 616.853 140.1C616.853 142.1 615.953 143.933 614.153 145.6C612.353 147.267 609.586 148.1 605.853 148.1Z" fill="black"/>
<path d="M282.6 147V73H294.8V109.1L290.7 109.7C291.5 107.033 293.167 104.433 295.7 101.9C298.233 99.3667 301.4 97.3 305.2 95.7C309 94.0333 313.133 93.2 317.6 93.2C322.933 93.2 327.367 94.2333 330.9 96.3C334.5 98.3667 337.2 101.133 339 104.6C340.8 108 341.7 111.733 341.7 115.8V147H329.4V118.4C329.4 115.533 328.667 113.033 327.2 110.9C325.733 108.7 323.8 107 321.4 105.8C319 104.533 316.3 103.9 313.3 103.9C310.633 103.9 308.167 104.4 305.9 105.4C303.633 106.4 301.667 107.667 300 109.2C298.4 110.733 297.133 112.433 296.2 114.3C295.333 116.1 294.9 117.9 294.9 119.7V147H288.8C286.733 147 285.167 147 284.1 147C283.1 147 282.6 147 282.6 147Z" fill="black"/>
</g>
<defs>
<clipPath id="clip0_16_52">
<rect width="700" height="220" fill="white"/>
</clipPath>
</defs>
</svg>
